<?xml version="1.0" encoding="iso-8859-1"?>
<!-- Uploaded to: SVG Repo, www.svgrepo.com, Generator: SVG Repo Mixer Tools -->
<svg version="1.1" id="Layer_1" xmlns="http://www.w3.org/2000/svg" xmlns:xlink="http://www.w3.org/1999/xlink" 
	 viewBox="0 0 506 506" xml:space="preserve">
<circle style="fill:#FFD05B;" cx="253" cy="253" r="253"/>
<path style="fill:#84DBFF;" d="M292.8,355.3L253,330.9l-39.8,24.4c-23.4,14.3-36.3,33.4-36.3,53.6v6.4h2l0,0h148.3l0,0h2v-6.4
	C329.1,388.7,316.2,369.6,292.8,355.3z"/>
<path style="fill:#FF7058;" d="M325.2,90.8L325.2,90.8H180.9l0,0H177v6.4c0,20.2,12.9,39.2,36.3,53.6l39.8,24.4l39.8-24.4
	c23.4-14.3,36.3-33.3,36.3-53.6v-6.4H325.2z"/>
<path style="fill:#324A5E;" d="M328.6,246.4c-2.5-17.7-15.2-34.4-35.8-46.9L253,175.1l-39.8,24.4c-20.5,12.6-33.2,29.2-35.8,47
	l-0.5,6.4v0.3l0.5,6.6c2.6,17.7,15.3,34.4,35.8,46.9l39.8,24.4l39.8-24.4c20.5-12.6,33.2-29.2,35.8-47l0.5-6.4V253L328.6,246.4z"/>
<g>
	<rect x="222.9" y="206.2" style="fill:#2B3B4E;" width="60.3" height="8"/>
	<rect x="210.8" y="227.6" style="fill:#2B3B4E;" width="84.4" height="8"/>
	<rect x="201.9" y="249" style="fill:#2B3B4E;" width="102.2" height="8"/>
</g>
<g>
	<rect x="222.9" y="142" style="fill:#F1543F;" width="60.3" height="8"/>
	<rect x="210.8" y="120.6" style="fill:#F1543F;" width="84.4" height="8"/>
	<rect x="201.9" y="99.2" style="fill:#F1543F;" width="102.2" height="8"/>
</g>
<g>
	<rect x="222.9" y="356" style="fill:#43B9DD;" width="60.3" height="8"/>
	<rect x="210.8" y="377.4" style="fill:#43B9DD;" width="84.4" height="8"/>
	<rect x="201.9" y="398.8" style="fill:#43B9DD;" width="102.2" height="8"/>
</g>
<g>
	<rect x="210.8" y="270.4" style="fill:#2B3B4E;" width="84.4" height="8"/>
	<rect x="222.9" y="291.8" style="fill:#2B3B4E;" width="60.3" height="8"/>
</g>
</svg>